<svg width="118" height="20" viewBox="0 0 118 20" fill="none" xmlns="http://www.w3.org/2000/svg">
<g id="EssenceUI 1" clip-path="url(#clip0_25_119)">
<g id="Layer 2">
<g id="Layer 1">
<path id="Vector" d="M11.8695 0.828346V2.95903H2.31951V8.62394H11.8695V10.8335L2.34629 10.8603V16.9029H11.8695V19.0068H0V0.828346H11.8695Z" fill="white"/>
<path id="Vector_2" d="M18.2757 10.6475C18.752 10.8993 19.4758 11.16 20.4472 11.4296C21.2131 11.6258 21.9661 11.8692 22.7019 12.1582C23.2636 12.3905 23.7589 12.7584 24.1435 13.2291C24.539 13.7064 24.7368 14.3316 24.7368 15.1048C24.7523 15.6485 24.6395 16.1882 24.4077 16.6803C24.1758 17.1724 23.8314 17.603 23.4023 17.9372C22.5117 18.6503 21.311 19.0068 19.8004 19.0068C18.7576 19.0068 17.8539 18.7912 17.0891 18.36C16.3244 17.9288 15.5376 17.1302 14.7288 15.9644L16.5086 14.7792C17.0666 15.5712 17.5701 16.1152 18.0192 16.4111C18.4683 16.707 19.0888 16.8554 19.8807 16.8564C20.7074 16.8564 21.3552 16.7079 21.824 16.4111C22.2928 16.1142 22.5276 15.7229 22.5286 15.2372C22.5286 14.7346 22.2862 14.3527 21.8014 14.0916C21.3167 13.8304 20.5787 13.5725 19.5876 13.3179C18.8262 13.1189 18.0782 12.8713 17.3484 12.5767C16.787 12.3448 16.2879 11.9842 15.8913 11.524C15.4939 11.0637 15.2953 10.4578 15.2953 9.70619C15.2953 8.53845 15.7133 7.58538 16.5494 6.84697C17.3855 6.10855 18.5129 5.73982 19.9315 5.74076C20.726 5.72425 21.5113 5.91461 22.2101 6.29316C22.8677 6.66236 23.6728 7.38668 24.6254 8.46611L22.8752 9.64983C22.2637 8.96684 21.7737 8.49712 21.4055 8.24065C21.0372 7.98417 20.5383 7.86205 19.9089 7.87426C19.2071 7.87426 18.6406 8.02269 18.2094 8.31956C18.0071 8.44683 17.841 8.62426 17.7274 8.83462C17.6139 9.04499 17.5566 9.28115 17.5612 9.52018C17.5612 10.02 17.7994 10.3958 18.2757 10.6475Z" fill="white"/>
<path id="Vector_3" d="M30.6046 10.6475C31.0809 10.8993 31.8047 11.16 32.7761 11.4296C33.5419 11.626 34.2949 11.8693 35.0308 12.1582C35.5924 12.3906 36.0877 12.7586 36.4724 13.2291C36.8651 13.6989 37.0615 14.3222 37.0615 15.0991C37.0769 15.643 36.964 16.1829 36.7319 16.675C36.4998 17.1671 36.155 17.5976 35.7256 17.9316C34.8378 18.6484 33.639 19.0068 32.1293 19.0068C31.0865 19.0068 30.1833 18.7912 29.4195 18.36C28.6557 17.9288 27.8689 17.1302 27.0591 15.9644L28.8375 14.7792C29.3946 15.5712 29.8981 16.1151 30.3481 16.4111C30.7981 16.707 31.4186 16.8554 32.2097 16.8564C33.0373 16.8564 33.6846 16.7079 34.1515 16.4111C34.6184 16.1142 34.8533 15.7229 34.8561 15.2372C34.8561 14.7346 34.6132 14.3527 34.1275 14.0916C33.6418 13.8304 32.9044 13.5739 31.9151 13.3222C31.1537 13.1229 30.4058 12.8753 29.6759 12.5809C29.1149 12.3489 28.6163 11.9884 28.2203 11.5283C27.8201 11.0651 27.62 10.4578 27.62 9.70619C27.62 8.53845 28.038 7.58537 28.8741 6.84696C29.7102 6.10855 30.8376 5.73982 32.2562 5.74076C33.0512 5.72413 33.8369 5.91449 34.5362 6.29316C35.1938 6.66236 35.9985 7.38668 36.9501 8.46611L35.2042 9.64982C34.5926 8.96684 34.1022 8.49711 33.733 8.24064C33.3638 7.98417 32.8649 7.86204 32.2364 7.87426C31.5347 7.87426 30.9682 8.02269 30.537 8.31956C30.3349 8.4471 30.1692 8.62462 30.0559 8.83495C29.9426 9.04529 29.8855 9.28131 29.8901 9.52018C29.8901 10.02 30.1283 10.3958 30.6046 10.6475Z" fill="white"/>
<path id="Vector_4" d="M52.5498 13.5603H41.6779C42.236 15.8817 43.7109 17.0419 46.1028 17.041C47.0197 17.041 47.8018 16.8836 48.449 16.5689C49.0963 16.2542 49.7436 15.7192 50.3909 14.9638L52.0636 15.9615C51.4849 16.9547 50.6458 17.7709 49.637 18.3219C48.6042 18.8886 47.4428 19.1798 46.2648 19.1674C45.0363 19.1842 43.8237 18.8874 42.7419 18.305C41.7128 17.7512 40.8583 16.9217 40.2744 15.9094C39.6741 14.8589 39.3665 13.6667 39.3838 12.4569C39.3711 11.2646 39.6787 10.0908 40.2744 9.05797C40.8516 8.0468 41.6884 7.20811 42.6982 6.62854C43.731 6.03282 44.9049 5.72525 46.0971 5.73794C47.2815 5.71618 48.448 6.02929 49.4623 6.64122C50.448 7.25027 51.2425 8.12438 51.755 9.16366C52.3194 10.3128 52.6015 11.5799 52.5779 12.8599L52.5498 13.5603ZM50.2021 11.3761C49.7323 9.07535 48.3659 7.92452 46.1028 7.92358C43.8716 7.92358 42.4239 9.07441 41.7597 11.3761H50.2021Z" fill="white"/>
<path id="Vector_5" d="M64.649 6.83005C65.5931 7.55813 66.1728 8.55207 66.3879 9.81188C66.4969 10.6254 66.544 11.446 66.5288 12.2667V19.0068H64.3996V12.5626C64.3996 11.052 64.1835 9.88328 63.7513 9.05656C63.3192 8.22984 62.5207 7.81601 61.3557 7.81507C59.8094 7.81507 58.7844 8.19085 58.2809 8.94242C57.7774 9.69398 57.5256 10.6832 57.5256 11.9102C57.5256 12.2512 57.5354 12.5133 57.5524 12.6922V19.0068H55.4625L55.5217 5.73794H57.5932L57.5679 6.97943C58.0036 6.53763 58.5405 6.20872 59.132 6.02118C59.8148 5.82024 60.5244 5.72519 61.236 5.73935C62.5662 5.73841 63.7039 6.10198 64.649 6.83005Z" fill="white"/>
<path id="Vector_6" d="M79.4581 18.336C78.4671 18.8963 77.3455 19.1846 76.2071 19.1717C74.9996 19.185 73.8095 18.8828 72.7546 18.2951C71.7262 17.7254 70.8726 16.8859 70.2857 15.8671C69.6809 14.8231 69.3689 13.6352 69.3824 12.4287C69.3656 11.2384 69.6532 10.0636 70.2181 9.01569C70.766 8.01263 71.5836 7.18283 72.5785 6.62008C73.595 6.03668 74.7693 5.74451 76.1014 5.74357C77.2432 5.72877 78.3701 6.00264 79.3778 6.53976C80.3586 7.06961 81.2534 7.97337 82.0623 9.25103L80.3896 10.3023C79.6887 9.45677 79.0236 8.84095 78.3942 8.45484C77.7164 8.05538 76.94 7.85422 76.1536 7.87426C75.3385 7.86245 74.5344 8.06251 73.82 8.45484C73.1385 8.83123 72.5772 9.39251 72.2008 10.074C71.8091 10.7882 71.6096 11.5918 71.6216 12.4062C71.6169 13.2003 71.8167 13.9822 72.2017 14.6767C72.5867 15.3712 73.144 15.9549 73.82 16.3716C74.4708 16.7792 75.2236 16.9946 75.9915 16.9931C76.7645 16.9971 77.529 16.8311 78.2307 16.5069C78.9325 16.1847 79.6427 15.5374 80.3614 14.565L82.0876 15.6445L81.9538 15.8601C81.3424 16.8814 80.4842 17.7327 79.4581 18.336Z" fill="white"/>
<path id="Vector_7" d="M97.3293 13.5603H86.4575C87.0155 15.8817 88.4905 17.0419 90.8823 17.041C91.8001 17.041 92.5822 16.8836 93.2286 16.5689C93.8749 16.2542 94.5227 15.7192 95.1719 14.9638L96.8445 15.9615C96.2645 16.9547 95.4246 17.7708 94.4151 18.3219C93.3824 18.8888 92.221 19.18 91.043 19.1674C89.8144 19.1846 88.6017 18.8878 87.52 18.305C86.4902 17.7517 85.6352 16.9221 85.0511 15.9094C84.4508 14.8589 84.1433 13.6667 84.1605 12.4569C84.1478 11.2646 84.4554 10.0908 85.0511 9.05797C85.6297 8.04678 86.4679 7.20853 87.4791 6.62995C88.512 6.03423 89.6858 5.72666 90.8781 5.73935C92.0601 5.71869 93.224 6.03177 94.2362 6.64263C95.2217 7.25129 96.0162 8.1249 96.5289 9.16366C97.0933 10.3128 97.3754 11.5799 97.3519 12.8599L97.3293 13.5603ZM94.9788 11.3761C94.5091 9.07535 93.1422 7.92452 90.8781 7.92358C88.6478 7.92358 87.2001 9.07441 86.535 11.3761H94.9788Z" fill="white"/>
<path id="Vector_8" d="M113.65 2.25867L113.677 5.54911L113.704 9.40745C113.704 10.8467 113.695 11.8087 113.677 12.2934C113.611 13.5255 113.25 14.7236 112.625 15.7868C112.042 16.776 111.209 17.5944 110.21 18.1596C109.211 18.7249 108.081 19.0171 106.933 19.0068C105.856 19.0119 104.792 18.777 103.817 18.3191C102.858 17.8778 102.027 17.1987 101.403 16.3463C100.77 15.4825 100.395 14.4559 100.324 13.387C100.27 12.9548 100.243 11.9924 100.243 10.4996C100.243 8.18005 100.252 6.44488 100.27 5.29405C100.287 4.50209 100.296 3.32401 100.297 1.75982V0.881901H101.672L101.646 8.70567C101.624 8.90265 101.615 9.10081 101.619 9.29894V10.6208C101.6 11.8084 101.718 12.9942 101.97 14.155C102.187 15.1187 102.718 15.9828 103.48 16.6112C104.253 17.2585 105.377 17.5821 106.853 17.5821C110.376 17.5821 112.166 15.6562 112.22 11.8045V0.881901H113.65V2.25867Z" fill="white"/>
<path id="Vector_9" d="M116.539 19.0068V0.881901H117.948V19.0068H116.539Z" fill="white"/>
</g>
</g>
</g>
<defs>
<clipPath id="clip0_25_119">
<rect width="117.94" height="18.3433" fill="white" transform="translate(0 0.828346)"/>
</clipPath>
</defs>
</svg>
